<svg viewBox="0 0 400 400" xmlns="http://www.w3.org/2000/svg">
<defs>
<linearGradient gradientTransform="matrix(345.306 234.67 234.67 -345.306 29.9881 84.4775)" gradientUnits="userSpaceOnUse" id="LinearGradient" x1="0" x2="1" y1="0" y2="0">
<stop offset="0" stop-color="#dedacf"/>
<stop offset="1" stop-color="#a29b91"/>
</linearGradient>
</defs>
<clipPath id="ArtboardFrame">
<rect height="400" width="400" x="0" y="0"/>
</clipPath>
<g clip-path="url(#ArtboardFrame)" id="Layer-4">
<path d="M0 200C0 89.5309 89.5309 0 200 0C310.469 0 400 89.5309 400 200C400 310.469 310.469 400 200 400C89.5309 400 0 310.469 0 200L0 200Z" fill="url(#LinearGradient)" fill-rule="nonzero" opacity="1" stroke="none"/>
</g>
<g id="main-figure">
<g opacity="1">
<path d="M260.444 293.778L301.926 293.975" fill="none" opacity="1" stroke="#2e2c21" stroke-linecap="round" stroke-linejoin="round" stroke-width="1.5"/>
<path d="M91.0617 293.778L132.543 293.975" fill="none" opacity="1" stroke="#2e2c21" stroke-linecap="round" stroke-linejoin="round" stroke-width="1.5"/>
<path d="M159.704 304.346L157.728 304.346L157.728 296.296L149.58 296.296L149.58 304.346L147.556 304.346L147.556 287.358L149.531 287.358L149.531 294.321L157.728 294.321L157.728 287.358L159.704 287.358L159.704 304.346ZM179.457 286.914C181.086 286.914 182.617 287.309 184 288.099C186.765 289.679 188.444 292.642 188.444 295.802C188.494 300.691 184.494 304.691 179.605 304.741L179.556 304.741C176.395 304.741 173.432 303.062 171.802 300.346C171.012 299.012 170.617 297.481 170.617 295.901C170.617 292.691 172.296 289.728 175.062 288.099C176.395 287.309 177.877 286.914 179.457 286.914L179.457 286.914ZM179.506 302.815C183.259 302.914 186.321 299.951 186.42 296.198C186.42 296.099 186.42 296 186.42 295.901C186.42 293.926 185.778 292.247 184.444 290.914C183.16 289.58 181.383 288.84 179.506 288.889C175.704 288.889 172.642 291.951 172.642 295.753C172.642 295.802 172.642 295.802 172.642 295.852C172.642 297.827 173.333 299.457 174.667 300.79C176.049 302.123 177.63 302.765 179.506 302.815L179.506 302.815ZM207.21 289.284L203.506 289.284L203.506 304.346L201.481 304.346L201.481 289.235L197.728 289.235L197.728 287.259L207.21 287.259L207.21 289.284L207.21 289.284ZM227.111 289.333L219.21 289.333L219.21 294.173L227.012 294.173L227.012 296.148L219.21 296.148L219.21 302.37L227.012 302.37L227.012 304.346L217.185 304.346L217.185 287.358L227.062 287.358L227.111 289.333L227.111 289.333ZM245.926 304.346L237.531 304.346L237.531 287.358L239.506 287.358L239.506 302.42L245.926 302.42L245.926 304.346Z" fill="#2e2c21" fill-rule="nonzero" opacity="1" stroke="none"/>
<path d="M146.864 201.136L146.864 200.346L125.63 200.346L125.63 201.185C128.346 201.58 130.469 202.321 131.901 203.309C133.383 204.296 134.37 205.63 134.963 207.259C135.457 208.395 135.654 210.074 135.704 212.198C135.802 214.222 135.802 216.444 135.802 218.716L135.802 247.951L95.1111 200.346L77.6296 200.346L77.6296 201.185C78.5679 201.333 79.5062 201.481 80.5432 201.778C82.6667 202.272 84.4938 203.654 85.5802 205.58C86.1728 206.568 86.5679 207.951 86.7654 209.63L86.8148 213.827L86.8148 224.247C86.8148 230.765 86.6667 237.235 86.4691 243.753C86.3704 246.568 86.2222 249.333 85.9753 252.148C85.7284 254.519 85.2346 256.296 84.4444 257.531C83.7037 258.765 82.5185 259.704 81.1852 260.247C79.8519 260.741 78.4691 261.136 77.037 261.284L77.037 262.173L98.1728 262.173L98.1728 261.284C96.2469 261.136 94.4198 260.642 92.642 259.901C91.358 259.309 90.2716 258.222 89.679 256.938C88.9877 255.259 88.5926 253.481 88.5926 251.654C88.4444 249.333 88.3951 246.716 88.3951 243.753L88.3951 207.506C95.8025 215.753 103.062 224.099 110.123 232.642C113.827 236.889 117.63 241.383 121.63 246.074L134.963 261.58C135.506 262.123 136.049 262.42 136.494 262.42C136.79 262.42 136.988 262.321 137.136 262.173C137.284 262.074 137.383 261.877 137.383 261.679L137.383 256.049C137.383 251.951 137.383 247.802 137.284 243.704L137.284 238.173C137.284 229.185 137.531 220.198 138.074 211.259C138.173 208.938 138.42 207.309 138.815 206.469C139.506 204.84 140.494 203.605 141.778 202.765C143.062 201.975 144.741 201.432 146.914 201.136L146.864 201.136ZM209.778 245.778L208.84 245.481C207.407 247.951 206.025 250.074 204.691 251.802C203.457 253.432 202.074 254.914 200.494 256.247C197.778 258.519 194.469 259.951 190.963 260.346C188.148 260.79 185.333 260.938 182.469 260.84C180.198 260.84 178.025 260.691 176.099 260.346C174.123 260 172.938 259.457 172.395 258.617C171.802 257.481 171.457 256.247 171.407 254.963C171.111 251.704 171.012 248.395 171.062 245.086L171.062 234.765C171.062 233.185 171.062 232.049 171.21 231.21L175.16 231.21C176.444 231.21 177.728 231.259 179.012 231.407C180.741 231.506 182.272 231.802 183.556 232.346C184.84 232.84 185.926 233.531 186.864 234.321C187.852 235.309 188.84 236.79 189.827 238.716C190.765 240.691 191.457 242.519 191.901 244.395L192.938 244.395L192.938 217.284L191.951 217.284C191.556 218.914 191.21 220.346 190.765 221.63C190.321 222.914 189.778 224.099 189.037 225.037C188.346 226.025 187.407 226.815 186.272 227.506C184.099 228.741 181.679 229.481 179.16 229.531C177.037 229.679 174.963 229.778 172.84 229.827L171.111 229.827L171.111 226.716L171.062 223.062L171.062 217.58C171.062 212.346 171.21 207.16 171.457 201.926L174.272 201.63L178.025 201.481C181.778 201.481 184.988 201.679 187.605 201.975C190.272 202.37 192.049 202.765 193.037 203.21C197.086 205.185 201.432 209.136 206.123 214.914L206.963 214.469L201.136 200.296L153.728 200.296L153.728 201.136C155.21 201.383 156.494 201.63 157.481 201.877C158.469 202.123 159.358 202.716 160.198 203.654C160.543 204 160.84 204.543 161.037 205.333C161.235 206.074 161.383 206.963 161.481 207.951C161.679 210.025 161.728 212.148 161.679 214.222L161.679 235.951C161.728 240.247 161.679 244.494 161.531 248.79C161.531 250.617 161.383 252.444 161.136 254.222C160.988 255.012 160.84 255.753 160.642 256.543C160.494 257.086 160.296 257.58 159.951 258.025C159.111 258.963 158.074 259.704 156.889 260.198C155.605 260.691 154.272 261.086 152.938 261.284L152.938 262.173L205.481 262.173L209.778 245.778L209.778 245.778ZM258.469 245.235C258.469 241.136 257.333 237.778 255.21 235.062C252.84 232.198 249.679 230.025 246.123 228.84C243.16 227.704 240.148 226.667 237.086 225.728L233.877 224.543C230.914 223.407 228.543 221.975 226.716 220.099C224.84 218.173 223.901 215.506 224 212.84C224 210.864 224.296 209.136 224.988 207.654C226.222 204.642 228.741 202.37 231.852 201.481C233.481 200.988 235.16 200.741 236.889 200.741C239.111 200.741 241.136 201.185 242.963 202.074C244.79 203.012 246.469 204.198 247.901 205.679C250.765 208.691 252.988 212.346 254.321 216.296L255.259 216.296L255.259 200.346L254.272 200.346C253.827 201.037 253.333 201.728 252.79 202.37C252.296 203.062 251.901 203.407 251.704 203.407L250.716 202.765C250.123 202.37 249.235 201.877 248.099 201.333C244.593 199.852 240.741 199.16 236.938 199.309C234.173 199.309 231.556 199.654 229.086 200.346C226.617 201.086 224.395 202.173 222.519 203.654C218.37 206.914 216.099 211.951 216.346 217.235C216.346 219.111 216.642 220.84 217.284 222.469C219.111 227.259 222.864 231.012 227.654 232.84C229.679 233.679 231.753 234.37 233.827 235.012L236.691 236L240.296 237.284C241.679 237.778 242.963 238.37 244.148 239.012C245.333 239.605 246.37 240.395 247.309 241.284C249.235 243.21 250.272 245.877 250.173 248.593C250.37 252.148 248.889 255.654 246.222 258.025C243.605 260.346 240.148 261.481 235.901 261.481C232.938 261.333 230.025 260.543 227.407 259.16C226.42 258.667 225.432 257.926 224.346 256.938C221.037 253.432 218.469 249.333 216.741 244.889L215.901 244.889L216.148 262.025L216.938 262.025L218.469 260.049C219.062 259.358 219.457 259.012 219.605 259.012C220.049 259.16 220.444 259.358 220.84 259.605C223.358 260.84 226.025 261.728 228.79 262.173C234.173 263.012 239.704 262.815 245.037 261.58C247.605 260.938 250.025 259.753 252.099 258.123C256.148 255.062 258.519 250.222 258.42 245.136L258.469 245.235ZM326.914 216.148L324.148 199.407C321.432 200.346 318.568 200.84 315.654 200.889C312.049 200.889 308.395 200.938 304.79 201.037L283.506 201.037C278.272 200.988 273.086 200.84 267.852 200.543C266.617 200.395 265.383 200.148 264.198 199.852L261.63 216.148L262.37 216.444C263.654 213.235 265.383 210.272 267.556 207.556C268.938 205.679 270.864 204.198 273.086 203.407C274.815 202.914 276.642 202.617 278.469 202.617C280.198 202.617 281.975 202.617 283.704 202.519L289.383 202.519L289.383 235.901L289.333 240.84L289.235 245.235C289.185 247.259 289.136 249.235 289.136 251.259C289.086 252.938 288.938 254.568 288.642 256.198C288.543 256.741 288.346 257.235 288 257.63C286.963 258.914 285.531 259.901 283.951 260.444C282.568 260.84 281.136 261.136 279.654 261.284L279.654 262.173L307.556 262.173L307.556 261.284C306.321 261.086 304.889 260.741 303.309 260.296C301.827 259.901 300.494 258.963 299.654 257.679C299.21 257.037 298.963 256 298.864 254.469C298.765 252.988 298.716 251.358 298.716 249.679L298.716 216.099C298.716 211.556 298.716 207.062 298.815 202.519L304.444 202.519C306.222 202.469 307.951 202.519 309.728 202.617C311.901 202.667 313.679 202.864 315.111 203.259C316.494 203.605 317.827 204.395 319.012 205.531C319.506 205.926 320 206.519 320.642 207.358C322.025 209.235 323.309 211.21 324.494 213.235C325.136 214.321 325.679 215.407 326.123 216.444L326.914 216.148L326.914 216.148Z" fill="#2e2c21" fill-rule="nonzero" opacity="1" stroke="none"/>
</g>
<g opacity="1">
<path d="M161.679 72.8395C161.284 72.7407 160.889 72.8395 160.543 73.0864C159.556 73.7778 158.568 74.5185 157.827 75.4568C155.457 78.4691 154.173 82.1728 154.173 85.9753C153.778 92.5432 154.864 99.1605 154.469 105.728C154.272 108.741 153.679 111.654 153.136 114.617C152.395 117.728 152.049 120.988 152.198 124.198C152.395 126.42 153.086 128.593 154.025 130.617C156.642 135.654 160.099 140.148 164.296 144C165.63 145.284 166.914 146.667 168.346 147.802C169.877 149.037 171.556 150.123 173.383 150.963C177.975 153.136 183.062 154.123 187.951 155.457C191.21 156.346 194.37 157.432 197.531 158.617C204.741 161.333 211.901 164.494 219.407 166.37C220.938 166.765 222.469 167.062 224.049 167.358C225.975 167.704 228 168 229.926 167.852C233.284 167.506 236.543 165.975 239.704 164.741C240.444 164.444 240.79 163.605 240.543 162.864C240.247 162.123 239.407 161.728 238.617 162.025L238.617 162.025L234.37 163.704C232.889 164.346 231.309 164.741 229.679 164.938C227.802 165.037 225.926 164.889 224.099 164.444C222.469 164.148 220.84 163.753 219.259 163.309C212.444 161.481 205.926 158.765 199.358 156.247C194.519 154.37 189.481 152.889 184.543 151.309C181.284 150.272 177.975 149.284 174.914 147.753C173.58 147.111 172.247 146.272 171.062 145.333C169.333 143.951 167.802 142.321 166.222 140.741C163.951 138.519 161.877 136.099 159.951 133.58C158.469 131.704 157.235 129.63 156.296 127.457C155.457 125.481 155.012 123.309 155.111 121.136C155.21 118.568 155.802 116.049 156.296 113.58C156.79 111.062 157.185 108.494 157.333 105.926C157.58 101.827 157.333 97.679 157.086 93.5802C156.988 91.1111 156.889 88.642 157.086 86.1728C157.284 83.0617 157.877 79.7531 160 77.3333C160.642 76.5926 161.383 76 162.173 75.4568C162.815 74.963 162.963 74.0247 162.469 73.3827C162.272 73.1358 161.975 72.9383 161.679 72.8395L161.679 72.8395Z" fill="#2e2c21" fill-rule="nonzero" opacity="1" stroke="none"/>
<path d="M143.111 108.642C142.765 108.543 142.37 108.593 142.025 108.741C141.284 109.086 141.037 109.975 141.383 110.716C141.975 111.753 142.617 112.84 143.358 113.877C143.852 114.667 144.444 115.358 144.988 116.148L145.926 117.728C146.222 118.272 146.568 118.716 146.914 119.21C147.506 119.951 148.099 120.642 148.691 121.235C149.086 121.679 149.58 122.074 149.926 122.519C151.309 124.296 152.346 126.321 153.086 128.444C153.235 129.235 154.025 129.778 154.864 129.58C155.654 129.432 156.198 128.642 156 127.802C155.951 127.654 155.951 127.556 155.852 127.407C155.358 125.926 154.667 124.494 153.877 123.111L152.296 120.79C152 120.247 151.753 119.654 151.407 119.16C150.617 117.827 149.63 116.642 148.543 115.556L147.259 114.321C145.975 112.741 144.889 111.062 143.951 109.284C143.802 108.938 143.457 108.691 143.111 108.543L143.111 108.642Z" fill="#2e2c21" fill-rule="nonzero" opacity="1" stroke="none"/>
<g opacity="1">
<path d="M133.975 123.852C140.198 132.741 148.642 134.765 158.914 135.852C158.914 135.852 170.864 141.235 175.309 141.284C179.753 141.383 212.988 142.568 221.679 141.383C230.37 140.198 236.099 138.519 239.556 134.617C243.012 130.716 236.444 140.741 236.444 140.741L226.42 148.049C224.79 149.185 222.963 149.679 220.099 150.815C214.272 153.136 205.086 154.272 197.58 154.272C186.42 154.272 174.074 148.593 170.519 146.716C167.111 144.198 164.049 141.185 161.383 137.877C160.296 136.642 147.16 133.778 145.679 133.136" fill="#2e2c21" fill-rule="nonzero" opacity="1" stroke="none"/>
<path d="M134.173 122.42C133.827 122.37 133.432 122.42 133.136 122.667C132.494 123.16 132.346 124.049 132.79 124.691C135.802 129.037 140.049 132.395 144.988 134.321C145.037 134.321 145.037 134.469 145.136 134.469C146.963 135.111 148.84 135.605 150.765 136C153.679 136.741 156.543 137.58 159.407 138.469L160.346 138.914C163.012 142.025 165.926 144.938 169.086 147.556C171.901 149.037 174.765 150.37 177.728 151.506C183.16 153.58 188.889 155.16 194.667 155.605C202.914 156.099 211.16 155.111 219.062 152.79L222.025 151.802C223.309 151.309 224.642 150.815 225.877 150.222C227.16 149.58 228.346 148.741 229.481 147.901L234.914 144.099L236.741 142.716C237.086 142.469 237.481 142.222 237.728 141.926C237.975 141.728 238.123 141.432 238.321 141.185L239.21 139.753C239.951 138.667 240.642 137.531 241.284 136.395C241.63 135.802 242.074 135.16 242.272 134.519L242.37 134.025L242.37 133.383C242.37 133.037 242.074 132.691 241.877 132.444C241.778 132.346 241.679 132.247 241.531 132.198C239.753 131.16 238.568 133.185 237.383 134.173C236.543 135.012 235.506 135.654 234.42 136.198C231.852 137.432 229.185 138.321 226.37 138.815C223.901 139.309 221.432 139.704 218.914 139.901C215.457 140.148 212 140.198 208.543 140.296C205.481 140.346 202.42 140.444 199.407 140.395C195.951 140.395 192.494 140.296 189.086 140.198L179.309 139.951L176.494 139.901C175.753 139.901 175.012 139.901 174.272 139.753C172.642 139.506 171.062 139.012 169.531 138.519C166.519 137.531 163.556 136.346 160.642 135.062C160.148 134.815 159.654 134.519 159.111 134.42L156.593 134.123C154.864 133.926 153.136 133.63 151.457 133.235L149.728 132.741C148.889 132.543 148.049 132.346 147.21 132.049C144.444 131.062 141.778 129.778 139.506 127.852C137.877 126.42 136.395 124.79 135.16 123.012C134.914 122.667 134.568 122.469 134.173 122.42L134.173 122.42ZM165.185 139.951C166.667 140.444 168.049 141.086 169.531 141.531C171.062 142.025 172.642 142.469 174.173 142.667C175.16 142.815 176.198 142.765 177.235 142.815C183.556 142.963 189.926 143.111 196.247 143.309C201.481 143.309 206.716 143.556 211.951 143.556C214.963 143.556 217.975 143.556 220.988 143.259C225.383 142.815 229.728 141.877 233.926 140.395L232.79 141.235L227.506 145.185C226.617 145.827 225.728 146.568 224.79 147.16C223.556 147.852 222.222 148.346 220.889 148.84C219.21 149.58 217.481 150.173 215.704 150.716C208.642 152.346 201.432 152.988 194.222 152.691C186.963 151.605 179.901 149.481 173.235 146.42L170.963 145.333C169.975 144.691 169.037 143.852 168.198 143.062C167.16 142.074 166.123 140.988 165.185 139.951L165.185 139.951Z" fill="#2e2c21" fill-rule="nonzero" opacity="1" stroke="none"/>
</g>
<path d="M255.111 110.173C254.716 110.173 254.37 110.321 254.074 110.568C248.642 115.605 245.481 122.42 241.975 128.84C239.951 133.037 237.235 136.84 234.025 140.198C232.938 141.185 231.753 142.123 230.667 143.16C228.494 145.235 226.519 147.358 223.753 148.691C221.185 149.778 218.519 150.568 215.753 151.012C212.444 151.704 209.086 152.198 205.728 152.593C200.593 153.235 195.457 153.679 190.321 153.975C187.012 154.173 183.753 154.37 180.444 154.469C175.654 154.568 170.815 154.42 166.025 154.025C159.16 153.481 151.062 152.148 147.012 145.877C145.877 144.049 145.037 142.025 144.593 139.901C144.247 139.16 143.358 138.864 142.617 139.21C142.074 139.457 141.778 140 141.778 140.593C142.272 142.568 142.914 144.444 143.852 146.222C144.84 148.049 146.123 149.679 147.654 151.012C150.469 153.481 154.074 154.864 157.679 155.753C161.235 156.494 164.889 156.938 168.543 157.086C172.296 157.333 176.148 157.333 179.951 157.383C183.062 157.383 186.173 157.531 189.333 157.432C196.247 157.284 203.16 156.79 209.926 155.704C212.79 155.259 215.605 154.617 218.42 153.926C220.198 153.432 221.975 152.938 223.654 152.099C225.679 151.16 227.605 149.926 229.284 148.444C230.617 147.309 231.753 146.074 233.086 144.889C234.222 143.802 235.506 142.815 236.642 141.679C238.716 139.556 240.494 137.086 242.074 134.519C246.568 127.21 249.63 118.667 256 112.691C256.543 112.099 256.494 111.16 255.901 110.617C255.704 110.37 255.407 110.272 255.111 110.173L255.111 110.173Z" fill="#2e2c21" fill-rule="nonzero" opacity="1" stroke="none"/>
<path d="M238.765 71.9506C238.025 72.1975 237.58 72.9877 237.778 73.7284C238.074 74.9136 238.469 76.0494 239.062 77.1852C239.753 78.4691 240.642 79.7037 241.235 81.0864C241.778 82.2716 242.123 83.5556 242.222 84.8889C242.321 86.7654 242.272 88.642 242.025 90.4691L241.531 92.8395L240.988 96.8395C240.593 100.444 240.938 104 241.63 107.506L242.37 111.062C242.667 112.444 242.864 113.877 243.062 115.259C243.407 117.383 243.654 119.506 243.753 121.679C243.852 123.21 243.654 124.741 243.259 126.272C243.012 127.309 242.519 128.296 241.877 129.136C241.235 129.63 241.086 130.568 241.58 131.21C242.074 131.852 243.012 132 243.654 131.506C243.852 131.358 244 131.16 244.099 130.963C245.235 129.58 245.827 127.951 246.222 126.222C247.012 123.012 246.617 119.802 246.173 116.543L245.778 114.025C245.63 112.889 245.383 111.753 245.284 110.568C245.037 109.086 244.988 107.605 244.84 106.123C244.691 104.346 244.494 102.519 244.444 100.691C244.444 99.5062 244.444 98.321 244.543 97.1358L244.79 93.1852C244.79 92.3951 244.79 91.5556 244.889 90.716C245.037 88.4938 245.333 86.2716 245.037 83.9506C244.79 82.2222 244.247 80.5432 243.457 79.0123C242.914 77.9259 242.222 76.8889 241.63 75.8025C241.136 74.9136 240.79 73.9753 240.543 72.9877C240.346 72.1975 239.556 71.7531 238.765 71.9506L238.765 71.9506Z" fill="#2e2c21" fill-rule="nonzero" opacity="1" stroke="none"/>
<path d="M255.012 83.4568C254.222 83.4568 253.58 84.0988 253.531 84.8889C253.63 88.1975 253.086 91.5556 251.951 94.6667C251.556 95.6049 250.963 96.4938 250.42 97.3333L248.049 100.889C247.457 101.728 246.914 102.617 246.37 103.506L245.728 104.691L244.889 105.778L243.259 108.099C241.778 110.321 240.543 112.642 239.457 115.111C239.309 115.901 239.802 116.691 240.642 116.84C241.235 116.938 241.827 116.691 242.123 116.247C243.309 113.531 244.741 110.963 246.469 108.543L248 106.37L249.827 104.494C251.556 102.469 252.938 100.198 253.975 97.7284L254.42 96.3457C254.815 95.1605 255.259 94.0247 255.556 92.8395C256.148 90.2716 256.444 87.6049 256.444 84.9383C256.444 84.1481 255.802 83.5062 255.012 83.4568L255.012 83.4568Z" fill="#2e2c21" fill-rule="nonzero" opacity="1" stroke="none"/>
<path d="M270.469 89.3827C270.123 89.2346 269.679 89.284 269.333 89.4321L264.296 91.8025C263.457 92.1975 262.617 92.7407 261.728 93.037L260.593 93.4321C258.716 94.1235 256.938 95.0617 255.358 96.2963L253.975 97.4321C253.235 98.0247 252.346 98.5185 251.605 99.0617C249.877 100.296 248.247 101.728 246.815 103.309C246.321 103.901 246.321 104.79 246.963 105.333C247.556 105.877 248.444 105.827 248.988 105.235C250.37 103.654 252 102.272 253.728 101.086C254.321 100.691 254.914 100.198 255.556 99.9012C257.877 98.963 260.049 97.7778 262.123 96.3951L263.062 95.6543C263.802 95.1605 264.741 94.8148 265.531 94.4198L270.568 92.0494C271.309 91.6543 271.556 90.7654 271.16 90.0247C271.012 89.7284 270.765 89.5309 270.469 89.3827L270.469 89.3827Z" fill="#2e2c21" fill-rule="nonzero" opacity="1" stroke="none"/>
<path d="M265.383 123.16C264.988 123.16 264.642 123.309 264.395 123.605C262.568 125.383 260.642 127.062 258.469 128.395C257.975 128.691 257.383 129.086 256.84 129.333C256.346 129.58 255.704 129.728 255.111 129.926L251.802 131.16C250.667 131.556 249.481 132 248.346 132.494L246.667 133.284L243.012 134.519C240.741 135.309 238.568 136.198 236.444 137.235C235.654 137.432 235.16 138.222 235.309 139.012C235.506 139.802 236.296 140.296 237.086 140.148C237.284 140.099 237.481 140 237.679 139.901C240.148 138.716 242.617 137.728 245.185 136.84L247.556 136.099C248.395 135.852 249.235 135.753 250.025 135.556C252.296 134.963 254.469 134.123 256.543 132.988L258.222 131.901L261.185 130.123C263.062 128.84 264.79 127.309 266.42 125.679C266.963 125.086 266.963 124.198 266.42 123.605C266.123 123.309 265.778 123.16 265.383 123.16L265.383 123.16Z" fill="#2e2c21" fill-rule="nonzero" opacity="1" stroke="none"/>
<path d="M255.358 139.012C254.568 139.012 253.926 139.654 253.877 140.444C253.827 141.778 253.63 143.111 253.136 144.395C251.951 146.963 250.025 149.086 247.605 150.469C246.914 150.963 246.123 151.358 245.333 151.704C244.198 152.148 242.914 152.395 241.728 152.642C238.519 153.284 235.259 153.58 231.951 153.778C230.519 153.877 229.086 154.074 227.605 154.025C221.728 153.975 215.901 153.037 209.975 153.037C209.235 153.037 208.593 153.679 208.543 154.42C208.543 155.259 209.185 155.901 210.025 155.901C213.778 155.901 217.58 156.346 221.383 156.593L225.728 156.889C226.617 156.889 227.506 156.889 228.444 156.988C229.63 157.086 230.815 157.235 232.049 157.235C236.741 157.531 241.481 156.691 245.778 154.765C246.914 154.173 248.049 153.63 249.136 152.938C252.543 150.963 255.062 147.802 256.247 144.049C256.593 142.914 256.741 141.679 256.741 140.444C256.741 139.654 256.148 139.012 255.358 139.012L255.358 139.012Z" fill="#2e2c21" fill-rule="nonzero" opacity="1" stroke="none"/>
<path d="M186.914 161.136C185.975 161.284 185.333 162.173 185.531 163.16C185.63 163.802 186.123 164.346 186.716 164.494C190.963 165.679 195.358 166.667 199.407 168.444C201.383 169.284 203.21 170.37 205.136 171.309C207.457 172.444 209.827 173.432 212.247 174.272C213.185 174.519 214.123 174.025 214.37 173.086C214.617 172.247 214.173 171.358 213.383 171.012C211.062 170.222 208.84 169.284 206.667 168.198C204.691 167.21 202.815 166.123 200.741 165.235C196.543 163.407 192.049 162.37 187.605 161.185L186.914 161.136L186.914 161.136Z" fill="#2e2c21" fill-rule="nonzero" opacity="1" stroke="none"/>
<path d="M207.852 152.938C207.506 152.79 207.062 152.79 206.716 152.938C203.21 154.469 199.654 156.049 196.099 157.531C194.469 158.222 192.84 158.914 191.16 159.506L188.296 160.296L184.148 161.531C182.074 162.123 179.951 162.667 177.827 163.16C176.84 163.358 175.901 163.654 174.963 163.704C173.284 163.852 171.506 163.605 169.877 163.309C166.617 162.815 163.457 161.926 160.247 161.086C159.506 160.938 158.765 161.333 158.519 162.074C158.272 162.864 158.716 163.654 159.506 163.901C163.457 164.889 167.358 165.975 171.358 166.469C172.84 166.617 174.272 166.617 175.753 166.568L177.679 166.568C181.481 166.222 185.235 165.235 188.741 163.753L192.198 162.222C193.877 161.481 195.556 160.889 197.235 160.247C200.79 158.765 204.346 157.136 207.901 155.605C208.642 155.309 208.938 154.469 208.642 153.728C208.444 153.333 208.148 153.086 207.852 152.938L207.852 152.938Z" fill="#2e2c21" fill-rule="nonzero" opacity="1" stroke="none"/>
<path d="M130.074 88.7407C129.333 89.037 128.938 89.9259 129.284 90.6667C129.432 90.963 129.63 91.2593 129.926 91.4074C133.679 93.2346 137.333 95.358 140.79 97.679C141.531 98.1728 142.173 98.8148 142.815 99.4074L146.173 102.222C147.506 103.358 148.84 104.494 150.123 105.679C153.975 109.284 156.741 113.827 158.222 118.864C158.617 119.556 159.556 119.802 160.247 119.407C160.741 119.111 161.037 118.568 160.988 118.025C160.099 114.864 158.667 111.852 156.84 109.136C155.852 107.654 154.667 106.272 153.531 104.84C151.16 101.58 148.148 98.8148 144.741 96.6914C143.951 96.1975 143.16 95.8025 142.37 95.2593L138.568 92.8395C136.148 91.4074 133.679 90.0247 131.16 88.7901C130.815 88.642 130.37 88.5926 130.025 88.7407L130.074 88.7407Z" fill="#2e2c21" fill-rule="nonzero" opacity="1" stroke="none"/>
<path d="M144.889 83.6049C144.247 83.6543 143.704 84.1975 143.704 84.8395C143.704 88.7901 143.556 92.8889 144.691 96.6914C145.185 98.4198 145.975 99.9506 146.914 101.432C147.259 101.975 148 102.173 148.593 101.827C149.185 101.481 149.333 100.691 148.988 100.148C148.198 98.8148 147.506 97.4815 147.111 96C146.025 92.3951 146.123 88.5926 146.123 84.8889C146.173 84.1975 145.63 83.6049 144.889 83.6049L144.889 83.6049Z" fill="#2e2c21" fill-rule="nonzero" opacity="1" stroke="none"/>
<path d="M157.037 108C157.037 86.4691 176.395 69.0864 199.062 69.0864C221.728 69.0864 241.481 86.5185 241.481 108.099C241.481 129.58 221.136 145.58 198.519 145.58C175.802 145.58 157.037 129.531 157.037 108L157.037 108Z" fill="none" opacity="1" stroke="#2e2c21" stroke-linecap="butt" stroke-linejoin="round" stroke-width="5.17205"/>
</g>
<g opacity="1">
<path d="M200.395 96.5432C209.778 96.5432 212.049 103.951 212.049 107.951C212.049 112 220.099 116.84 220.099 128.543C220.099 140.296 212 143.852 199.753 143.852C187.506 143.852 179.901 140 179.901 129.037C179.901 118.074 188.099 116.494 188.099 109.185C188.099 101.827 190.963 96.5432 200.395 96.5432L200.395 96.5432Z" fill="none" opacity="1" stroke="#2e2c21" stroke-linecap="butt" stroke-linejoin="round" stroke-width="4.52044"/>
<path d="M197.185 106.123C201.63 106.123 201.432 113.877 202.815 113.877C204.198 113.877 203.802 106.37 207.259 106.37" fill="none" opacity="1" stroke="#2e2c21" stroke-linecap="round" stroke-linejoin="round" stroke-width="2.08603"/>
</g>
</g>
</svg>
