<svg viewBox="0 0 400 400" xmlns="http://www.w3.org/2000/svg">
<defs>
<linearGradient gradientTransform="matrix(-402.156 331.068 -331.068 -402.156 400.906 68.2727)" gradientUnits="userSpaceOnUse" id="LinearGradient" x1="0" x2="1" y1="0" y2="0">
<stop offset="0" stop-color="#005b7b"/>
<stop offset="1" stop-color="#012234"/>
</linearGradient>
</defs>
<clipPath id="ArtboardFrame">
<rect height="400" width="400" x="0" y="0"/>
</clipPath>
<g clip-path="url(#ArtboardFrame)" id="TaskLynx">
<g>
<path d="M1.45328e-14 199.997C1.45328e-14 89.5403 89.5431-0.00272475 200-0.00272475C310.457-0.00272475 400 89.5403 400 199.997C400 310.454 310.457 399.997 200 399.997C89.5431 399.997 1.45328e-14 310.454 1.45328e-14 199.997Z" fill="url(#LinearGradient)" fill-rule="nonzero" stroke="none"/>
</g>
<g>
<g>
<g>
<path d="M104.563 126.015C100.361 127.38 98.1006 131.913 99.4658 136.115L119.832 198.796C121.197 202.998 125.671 205.277 129.873 203.912C129.873 203.912 131.039 203.908 131.599 202.425C132.187 200.867 132.774 198.931 135.307 198.894C139.874 198.827 164.301 193.228 178.928 175.487C180.355 173.757 181.695 172.446 183.484 170.195C184.194 169.302 176.976 150.164 176.976 150.164C176.614 149.438 176.03 148.412 175.796 148.05C171.777 141.832 171.26 138.008 169.54 127.279C168.594 122.938 165.445 114.677 165.445 114.677C164.421 111.526 161.636 109.438 158.53 109.17C157.495 109.08 156.435 109.16 155.385 109.502L140.435 114.359C139.242 114.747 138.583 116.04 138.971 117.234C139.357 118.422 138.722 119.706 137.536 120.098L125.281 124.146C124.067 124.548 122.791 123.868 122.396 122.652C122.003 121.44 120.704 120.803 119.492 121.197L104.563 126.015ZM114.32 139.865C114.541 139.712 114.736 139.668 114.953 139.791C116.407 140.61 115.395 143.863 114.999 145.493C114.037 149.455 113.576 155.955 112.021 156.351C110.722 156.682 106.538 151.183 106.378 149.904C106.141 148.017 110.251 152.376 110.74 152.003C111.708 151.265 111.896 147.791 112.536 144.486C113.025 141.959 113.657 140.325 114.32 139.865ZM123.46 142.711C129.214 140.874 133.038 140.541 140.233 138.411C147.428 136.282 146.12 136.256 152.242 134.213C158.364 132.171 164.695 130.266 164.695 130.266C166.195 129.787 167.808 130.621 168.288 132.122C168.767 133.622 167.962 135.226 166.462 135.705C166.462 135.705 160.388 137.566 154.307 139.556C148.226 141.546 149.395 141.441 142.101 143.653C134.806 145.866 130.942 146.556 125.116 148.416C125.116 148.416 120.084 150.548 118.852 150.879C116.652 151.469 115.747 150.553 115.268 149.053C114.789 147.553 115.895 146.548 117.105 145.4C117.105 145.4 117.705 144.549 123.46 142.711ZM119.803 157.043C120.024 156.889 120.248 156.836 120.466 156.959C121.92 157.778 120.857 161.08 120.462 162.71C119.5 166.672 119.099 173.153 117.543 173.549C116.244 173.88 112.001 168.401 111.84 167.121C111.604 165.235 115.773 169.573 116.262 169.201C117.23 168.463 117.349 164.978 117.989 161.674C118.478 159.146 119.14 157.502 119.803 157.043ZM163.409 148.657C169.163 146.82 170.11 147.236 170.11 147.236C171.67 147.303 173.214 147.561 173.693 149.062C174.172 150.562 174.012 151.881 171.877 152.675C170.681 153.119 165.293 154.255 165.293 154.255C159.467 156.115 155.951 157.773 148.725 160.197C141.498 162.622 142.531 162.095 136.422 163.997C130.313 165.9 124.267 167.848 124.267 167.848C122.767 168.327 121.153 167.493 120.674 165.993C120.195 164.493 121.02 162.849 122.52 162.37C122.52 162.37 128.838 160.326 135.011 158.443C141.184 156.559 140.156 157.293 147.253 154.859C154.35 152.425 157.654 150.495 163.409 148.657ZM125.673 175.31C125.894 175.157 126.059 175.123 126.276 175.246C127.73 176.065 126.727 179.348 126.332 180.978C125.37 184.939 124.899 191.41 123.344 191.806C122.045 192.137 117.851 186.708 117.69 185.429C117.453 183.542 121.583 187.86 122.072 187.488C123.04 186.75 123.219 183.246 123.859 179.941C124.348 177.414 125.009 175.77 125.673 175.31ZM128.544 181.113C131.215 180.327 130.441 181.319 136.196 179.481C141.95 177.644 144.764 177.05 151.673 174.124C158.144 171.384 158.321 171.886 164.444 169.843C170.566 167.801 172.415 166.986 176.134 165.979C176.648 165.84 177.064 165.78 177.46 165.811C178.647 165.903 179.358 166.68 179.717 167.805C180.196 169.305 180.301 170.397 177.832 171.407C174.164 172.909 171.741 172.912 165.66 174.902C159.579 176.892 161.093 177.09 153.915 179.507C146.057 182.154 143.748 183.139 137.923 184.999C137.923 184.999 133.026 186.421 130.222 186.581C128.179 186.698 127.177 186.236 126.698 184.736C126.219 183.236 126.817 181.621 128.544 181.113Z" fill="#ffffff" fill-rule="nonzero" stroke="none"/>
<path d="M128.393 111.582C127.129 112.001 126.441 113.351 126.86 114.615C126.867 114.638 126.899 114.64 126.907 114.663L123.613 115.745C123.103 115.914 122.823 116.463 122.992 116.973L124.302 120.865C124.471 121.375 125.011 121.626 125.521 121.457L136.472 117.861C136.983 117.692 137.253 117.114 137.084 116.603L135.784 112.741C135.615 112.231 135.066 111.951 134.555 112.12L131.435 113.145C131.43 113.131 131.458 113.12 131.454 113.106C131.036 111.842 129.657 111.164 128.393 111.582Z" fill="#ffffff" fill-rule="nonzero" stroke="none"/>
</g>
<g>
<path d="M173.023 110.423C172.467 113.412 173.588 133.823 180.837 145.051C188.086 156.28 187.32 154.786 185.532 148.482C183.744 142.179 183.426 137.049 185.521 140.789C188.026 145.262 191.796 146.502 193.959 147.061C196.121 147.619 190.055 141.649 182.532 129.711C175.008 117.774 173.579 107.434 173.023 110.423Z" fill="#ffffff" fill-rule="nonzero" stroke="none"/>
<path d="M174.219 101.861C178.402 106.381 190.996 115.357 194.85 116.921C200.559 119.238 205.641 122.714 207.438 123.663C209.326 124.66 225.776 126.097 235.957 128.421C249.474 131.506 260.736 134.544 266.988 149.158C271.721 160.224 281.333 164.645 280.919 165.248C280.504 165.85 277.869 165.578 276.222 166.012C274.575 166.447 270.836 167.024 268.482 164.699C266.128 162.374 260.149 152.666 258.204 149.176C254.809 143.084 244.339 137.255 233.297 136.175C210.263 133.923 205.304 131.53 205.304 131.53C205.304 131.53 211.889 138.794 220.277 141.617C228.665 144.441 221.784 143.305 217.003 142.519C212.222 141.733 202.748 136.964 191.974 126.268C181.2 115.572 169.776 97.0611 174.219 101.861Z" fill="#ffffff" fill-rule="nonzero" stroke="none"/>
<path d="M204.484 106.62C204.484 106.62 207.885 112.569 211.944 116.94C215.859 121.155 216.504 122.154 224.331 123.093C234.863 124.355 232.979 125.119 227.081 121.423C221.184 117.726 205.009 106.896 204.484 106.62Z" fill="#ffffff" fill-rule="nonzero" stroke="none"/>
<path d="M249.719 152.903C253.264 155.106 253.443 157.965 254.813 159.111C256.183 160.257 256.556 161.949 254.809 161.17C253.061 160.39 250.93 161.872 246.871 159.546C242.812 157.22 242.521 153.707 240.81 152.653C239.1 151.599 238.195 149.451 240.877 150.476C243.56 151.502 246.175 150.7 249.719 152.903Z" fill="#ffffff" fill-rule="nonzero" stroke="none"/>
<path d="M275.083 170.107C278.6 170.699 281.136 167.931 278.339 171.809C275.541 175.688 274.132 180.699 272.905 182.748C271.679 184.797 266.137 190.913 259.789 190.654C253.441 190.395 249.715 188.342 248.225 188.286C246.736 188.229 251.662 187.783 255.928 186.954C260.194 186.125 261.586 183.18 263.45 183.102C265.314 183.024 252.274 181.702 242.726 183.479C233.178 185.256 222.318 189.408 217.34 193.416C212.362 197.423 218.842 190.843 223.642 187.071C227.925 183.705 247.583 172.04 262.98 174.013C275.127 175.57 274.041 175.626 272.35 172.28C270.66 168.933 269.491 169.166 275.083 170.107Z" fill="#ffffff" fill-rule="nonzero" stroke="none"/>
<path d="M173.162 208.325C176.12 207.869 191.389 201.786 199.096 188.842C205.937 177.353 215.207 163.351 228.068 161.368C219.251 163.014 208.544 180.554 203.762 190.159C193.041 211.697 170.205 208.781 173.162 208.325Z" fill="#ffffff" fill-rule="nonzero" stroke="none"/>
<path d="M139.118 203.864C143.686 203.864 168.132 198.238 182.768 180.506C195.758 164.767 212.997 145.801 232.858 145.801C219.175 146.233 198.946 170.201 189.5 183.577C168.319 213.572 134.551 203.864 139.118 203.864Z" fill="#ffffff" fill-rule="nonzero" stroke="none"/>
</g>
</g>
<g>
<g fill="#ffffff" stroke="none">
<path d="M109.668 233.053L118.065 233.053C118.353 233.053 118.595 233.155 118.79 233.359C118.985 233.563 119.082 233.8 119.082 234.07C119.082 234.352 118.985 234.589 118.79 234.781C118.595 234.973 118.353 235.069 118.065 235.069L109.668 235.069C109.398 235.069 109.161 234.967 108.957 234.763C108.753 234.559 108.651 234.322 108.651 234.052C108.651 233.77 108.753 233.533 108.957 233.341C109.161 233.149 109.398 233.053 109.668 233.053ZM113.385 227.959C113.703 227.959 113.961 228.065 114.159 228.278C114.357 228.491 114.456 228.748 114.456 229.048L114.456 247.12C114.456 247.798 114.549 248.303 114.735 248.636C114.921 248.969 115.16 249.188 115.451 249.293C115.742 249.398 116.028 249.451 116.31 249.451C116.508 249.451 116.682 249.419 116.832 249.356C116.982 249.293 117.159 249.262 117.363 249.262C117.573 249.262 117.758 249.35 117.917 249.527C118.076 249.704 118.155 249.925 118.155 250.189C118.155 250.519 117.96 250.796 117.57 251.021C117.18 251.246 116.727 251.359 116.211 251.359C115.977 251.359 115.644 251.344 115.212 251.314C114.78 251.284 114.339 251.152 113.889 250.918C113.439 250.684 113.061 250.28 112.755 249.707C112.449 249.134 112.296 248.305 112.296 247.219L112.296 229.048C112.296 228.748 112.403 228.491 112.616 228.278C112.829 228.065 113.085 227.959 113.385 227.959Z"/>
<path d="M143.162 232.981C143.48 232.981 143.74 233.086 143.941 233.296C144.142 233.506 144.242 233.764 144.242 234.07L144.242 250.27C144.242 250.57 144.137 250.826 143.927 251.039C143.717 251.252 143.462 251.359 143.162 251.359C142.844 251.359 142.585 251.252 142.384 251.039C142.183 250.826 142.082 250.57 142.082 250.27L142.082 245.995L142.712 245.725C142.712 246.379 142.526 247.058 142.154 247.763C141.782 248.468 141.272 249.118 140.624 249.712C139.976 250.306 139.213 250.789 138.334 251.161C137.455 251.533 136.505 251.719 135.485 251.719C133.865 251.719 132.415 251.297 131.134 250.454C129.853 249.611 128.845 248.462 128.11 247.007C127.375 245.552 127.007 243.907 127.007 242.071C127.007 240.211 127.379 238.567 128.123 237.139C128.867 235.711 129.877 234.589 131.152 233.773C132.427 232.957 133.859 232.549 135.449 232.549C136.481 232.549 137.447 232.727 138.347 233.084C139.247 233.441 140.033 233.932 140.705 234.556C141.377 235.18 141.901 235.891 142.276 236.689C142.651 237.487 142.838 238.324 142.838 239.2L142.082 238.642L142.082 234.07C142.082 233.77 142.183 233.513 142.384 233.3C142.585 233.087 142.844 232.981 143.162 232.981ZM135.674 249.703C136.946 249.703 138.077 249.371 139.067 248.708C140.057 248.045 140.833 247.136 141.394 245.981C141.955 244.826 142.235 243.523 142.235 242.071C142.235 240.667 141.955 239.396 141.394 238.259C140.833 237.122 140.057 236.222 139.067 235.559C138.077 234.896 136.946 234.565 135.674 234.565C134.426 234.565 133.307 234.887 132.317 235.532C131.327 236.177 130.547 237.064 129.977 238.192C129.407 239.32 129.122 240.613 129.122 242.071C129.122 243.523 129.403 244.826 129.964 245.981C130.525 247.136 131.3 248.045 132.29 248.708C133.28 249.371 134.408 249.703 135.674 249.703Z"/>
<path d="M153.859 248.452C153.673 248.152 153.588 247.868 153.603 247.601C153.618 247.334 153.763 247.108 154.039 246.922C154.225 246.772 154.449 246.706 154.71 246.724C154.971 246.742 155.206 246.865 155.416 247.093C156.058 247.933 156.84 248.608 157.761 249.118C158.682 249.628 159.781 249.883 161.059 249.883C161.743 249.877 162.414 249.764 163.071 249.545C163.728 249.326 164.272 248.981 164.704 248.51C165.136 248.039 165.352 247.438 165.352 246.706C165.352 245.962 165.136 245.366 164.704 244.919C164.272 244.472 163.713 244.114 163.026 243.844C162.339 243.574 161.608 243.343 160.834 243.151C160.018 242.935 159.229 242.69 158.467 242.417C157.705 242.144 157.027 241.798 156.433 241.378C155.839 240.958 155.365 240.445 155.011 239.839C154.657 239.233 154.48 238.501 154.48 237.643C154.48 236.641 154.753 235.756 155.299 234.988C155.845 234.22 156.594 233.621 157.545 233.192C158.496 232.763 159.568 232.549 160.762 232.549C161.38 232.549 162.034 232.625 162.724 232.778C163.414 232.931 164.095 233.188 164.767 233.548C165.439 233.908 166.045 234.403 166.585 235.033C166.795 235.231 166.902 235.469 166.905 235.748C166.908 236.027 166.783 236.281 166.531 236.509C166.333 236.653 166.111 236.72 165.865 236.711C165.619 236.702 165.412 236.608 165.244 236.428C164.674 235.774 163.993 235.282 163.201 234.952C162.409 234.622 161.551 234.457 160.627 234.457C159.943 234.457 159.292 234.566 158.674 234.785C158.056 235.004 157.546 235.342 157.144 235.798C156.742 236.254 156.541 236.854 156.541 237.598C156.577 238.294 156.816 238.862 157.257 239.303C157.698 239.744 158.287 240.107 159.025 240.392C159.763 240.677 160.588 240.943 161.5 241.189C162.274 241.381 163.011 241.604 163.71 241.859C164.409 242.114 165.03 242.44 165.573 242.836C166.116 243.232 166.548 243.731 166.869 244.334C167.19 244.937 167.35 245.695 167.35 246.607C167.35 247.669 167.058 248.582 166.473 249.347C165.888 250.112 165.105 250.699 164.124 251.107C163.143 251.515 162.052 251.719 160.852 251.719C159.562 251.719 158.308 251.468 157.09 250.967C155.872 250.466 154.795 249.628 153.859 248.452Z"/>
<path d="M178.092 251.359C177.774 251.359 177.515 251.252 177.314 251.039C177.113 250.826 177.012 250.57 177.012 250.27L177.012 225.808C177.012 225.508 177.113 225.251 177.314 225.038C177.515 224.825 177.774 224.719 178.092 224.719C178.41 224.719 178.67 224.825 178.871 225.038C179.072 225.251 179.172 225.508 179.172 225.808L179.172 250.27C179.172 250.57 179.072 250.826 178.871 251.039C178.67 251.252 178.41 251.359 178.092 251.359ZM190.323 232.909C190.605 232.909 190.851 233.02 191.061 233.242C191.271 233.464 191.376 233.71 191.376 233.98C191.376 234.286 191.241 234.556 190.971 234.79L178.893 245.086L178.794 242.548L189.576 233.242C189.798 233.02 190.047 232.909 190.323 232.909ZM190.62 251.35C190.32 251.35 190.053 251.227 189.819 250.981L181.62 242.251L183.249 240.793L191.376 249.469C191.598 249.697 191.709 249.967 191.709 250.279C191.709 250.615 191.576 250.877 191.309 251.066C191.042 251.255 190.812 251.35 190.62 251.35Z"/>
<path d="M203.261 250.27C203.261 250.57 203.155 250.826 202.942 251.039C202.729 251.252 202.472 251.359 202.172 251.359C201.86 251.359 201.604 251.252 201.403 251.039C201.202 250.826 201.101 250.57 201.101 250.27L201.101 225.808C201.101 225.508 201.208 225.251 201.421 225.038C201.634 224.825 201.89 224.719 202.19 224.719C202.508 224.719 202.766 224.825 202.964 225.038C203.162 225.251 203.261 225.508 203.261 225.808L203.261 250.27Z"/>
<path d="M227.323 232.639C227.641 232.639 227.901 232.745 228.102 232.958C228.303 233.171 228.403 233.428 228.403 233.728L228.403 249.595C228.403 251.533 228.021 253.169 227.256 254.504C226.491 255.839 225.457 256.849 224.155 257.533C222.853 258.217 221.374 258.559 219.718 258.559C218.698 258.559 217.752 258.445 216.879 258.217C216.006 257.989 215.293 257.701 214.741 257.353C214.435 257.185 214.212 256.979 214.071 256.736C213.93 256.493 213.916 256.234 214.03 255.958C214.156 255.64 214.347 255.422 214.602 255.305C214.857 255.188 215.113 255.199 215.371 255.337C215.773 255.547 216.363 255.809 217.14 256.124C217.917 256.439 218.794 256.597 219.772 256.597C221.092 256.597 222.235 256.316 223.201 255.755C224.167 255.194 224.917 254.393 225.451 253.352C225.985 252.311 226.252 251.071 226.252 249.631L226.252 247.03L226.495 247.921C226.141 248.659 225.631 249.313 224.965 249.883C224.299 250.453 223.542 250.901 222.693 251.228C221.844 251.555 220.942 251.719 219.988 251.719C218.554 251.719 217.363 251.425 216.415 250.837C215.467 250.249 214.761 249.437 214.296 248.402C213.831 247.367 213.598 246.16 213.598 244.78L213.598 233.728C213.598 233.428 213.699 233.171 213.9 232.958C214.101 232.745 214.36 232.639 214.678 232.639C214.996 232.639 215.256 232.745 215.457 232.958C215.658 233.171 215.758 233.428 215.758 233.728L215.758 244.456C215.758 246.124 216.127 247.415 216.865 248.33C217.603 249.245 218.8 249.703 220.456 249.703C221.476 249.703 222.423 249.46 223.296 248.974C224.169 248.488 224.878 247.841 225.424 247.034C225.97 246.227 226.243 245.368 226.243 244.456L226.243 233.728C226.243 233.428 226.344 233.171 226.545 232.958C226.746 232.745 227.005 232.639 227.323 232.639Z"/>
<path d="M247.758 232.549C249.336 232.549 250.596 232.867 251.538 233.503C252.48 234.139 253.161 234.998 253.581 236.081C254.001 237.164 254.211 238.372 254.211 239.704L254.211 250.27C254.211 250.57 254.106 250.826 253.896 251.039C253.686 251.252 253.431 251.359 253.131 251.359C252.813 251.359 252.554 251.252 252.353 251.039C252.152 250.826 252.051 250.57 252.051 250.27L252.051 239.812C252.051 238.84 251.895 237.959 251.583 237.17C251.271 236.381 250.766 235.75 250.067 235.276C249.368 234.802 248.436 234.565 247.272 234.565C246.24 234.565 245.264 234.802 244.343 235.276C243.422 235.75 242.67 236.381 242.088 237.17C241.506 237.959 241.215 238.84 241.215 239.812L241.215 250.27C241.215 250.57 241.11 250.826 240.9 251.039C240.69 251.252 240.435 251.359 240.135 251.359C239.817 251.359 239.558 251.252 239.357 251.039C239.156 250.826 239.055 250.57 239.055 250.27L239.055 234.16C239.055 233.86 239.16 233.603 239.37 233.39C239.58 233.177 239.835 233.071 240.135 233.071C240.453 233.071 240.713 233.177 240.914 233.39C241.115 233.603 241.215 233.86 241.215 234.16L241.215 237.193L240.405 238.462C240.459 237.712 240.708 236.981 241.152 236.27C241.596 235.559 242.166 234.923 242.862 234.362C243.558 233.801 244.331 233.359 245.18 233.035C246.029 232.711 246.888 232.549 247.758 232.549Z"/>
<path d="M264.368 232.774C264.722 232.774 265.013 232.93 265.241 233.242L277.994 249.748C278.144 249.934 278.219 250.15 278.219 250.396C278.219 250.69 278.113 250.945 277.9 251.161C277.687 251.377 277.439 251.485 277.157 251.485C276.821 251.485 276.521 251.326 276.257 251.008L263.477 234.529C263.327 234.343 263.252 234.127 263.252 233.881C263.252 233.563 263.366 233.299 263.594 233.089C263.822 232.879 264.08 232.774 264.368 232.774ZM264.377 251.476C264.131 251.476 263.896 251.389 263.671 251.215C263.446 251.041 263.333 250.798 263.333 250.486C263.333 250.24 263.414 250.018 263.576 249.82L269.678 242.008L270.866 243.745L265.241 251.035C265.019 251.329 264.731 251.476 264.377 251.476ZM277.148 232.774C277.472 232.774 277.724 232.868 277.904 233.057C278.084 233.246 278.174 233.467 278.174 233.719C278.174 233.833 278.152 233.951 278.107 234.074C278.062 234.197 277.997 234.313 277.913 234.421L271.829 242.395L270.695 240.667L276.257 233.26C276.521 232.936 276.818 232.774 277.148 232.774Z"/>
</g>
<g>
<g fill="#b2ebff" stroke="none">
<path d="M145.967 278.708C146.959 278.708 147.81 278.968 148.52 279.488C149.23 280.008 149.711 280.78 149.963 281.804L149.627 281.912L149.765 281.474C149.969 280.986 150.316 280.533 150.806 280.115C151.296 279.697 151.855 279.358 152.483 279.098C153.111 278.838 153.741 278.708 154.373 278.708C155.381 278.708 156.194 278.926 156.812 279.362C157.43 279.798 157.878 280.38 158.156 281.108C158.434 281.836 158.573 282.656 158.573 283.568L158.573 290.342C158.573 290.542 158.506 290.713 158.372 290.855C158.238 290.997 158.065 291.068 157.853 291.068C157.641 291.068 157.468 290.997 157.334 290.855C157.2 290.713 157.133 290.542 157.133 290.342L157.133 283.64C157.133 282.98 157.03 282.378 156.824 281.834C156.618 281.29 156.29 280.857 155.84 280.535C155.39 280.213 154.793 280.052 154.049 280.052C153.381 280.052 152.747 280.213 152.147 280.535C151.547 280.857 151.061 281.29 150.689 281.834C150.317 282.378 150.131 282.98 150.131 283.64L150.131 290.342C150.131 290.542 150.064 290.713 149.93 290.855C149.796 290.997 149.623 291.068 149.411 291.068C149.199 291.068 149.026 290.997 148.892 290.855C148.758 290.713 148.691 290.542 148.691 290.342L148.691 283.55C148.691 282.902 148.594 282.315 148.4 281.789C148.206 281.263 147.893 280.842 147.461 280.526C147.029 280.21 146.447 280.052 145.715 280.052C145.059 280.052 144.44 280.21 143.858 280.526C143.276 280.842 142.802 281.263 142.436 281.789C142.07 282.315 141.887 282.902 141.887 283.55L141.887 290.342C141.887 290.542 141.817 290.713 141.677 290.855C141.537 290.997 141.367 291.068 141.167 291.068C140.955 291.068 140.782 290.997 140.648 290.855C140.514 290.713 140.447 290.542 140.447 290.342L140.447 279.602C140.447 279.402 140.517 279.231 140.657 279.089C140.797 278.947 140.967 278.876 141.167 278.876C141.379 278.876 141.552 278.947 141.686 279.089C141.82 279.231 141.887 279.402 141.887 279.602L141.887 281.822L141.257 282.722C141.293 282.234 141.445 281.753 141.713 281.279C141.981 280.805 142.332 280.375 142.766 279.989C143.2 279.603 143.692 279.293 144.242 279.059C144.792 278.825 145.367 278.708 145.967 278.708Z"/>
<path d="M181.771 284.93C181.771 286.146 181.506 287.236 180.976 288.2C180.446 289.164 179.725 289.923 178.813 290.477C177.901 291.031 176.867 291.308 175.711 291.308C174.567 291.308 173.536 291.031 172.618 290.477C171.7 289.923 170.973 289.164 170.437 288.2C169.901 287.236 169.633 286.146 169.633 284.93C169.633 283.702 169.901 282.606 170.437 281.642C170.973 280.678 171.7 279.918 172.618 279.362C173.536 278.806 174.567 278.528 175.711 278.528C176.867 278.528 177.901 278.806 178.813 279.362C179.725 279.918 180.446 280.678 180.976 281.642C181.506 282.606 181.771 283.702 181.771 284.93ZM180.331 284.93C180.331 283.946 180.131 283.076 179.731 282.32C179.331 281.564 178.783 280.967 178.087 280.529C177.391 280.091 176.599 279.872 175.711 279.872C174.835 279.872 174.046 280.091 173.344 280.529C172.642 280.967 172.088 281.564 171.682 282.32C171.276 283.076 171.073 283.946 171.073 284.93C171.073 285.898 171.276 286.76 171.682 287.516C172.088 288.272 172.642 288.869 173.344 289.307C174.046 289.745 174.835 289.964 175.711 289.964C176.599 289.964 177.391 289.745 178.087 289.307C178.783 288.869 179.331 288.272 179.731 287.516C180.131 286.76 180.331 285.898 180.331 284.93Z"/>
<path d="M198.669 278.528C199.753 278.528 200.718 278.8 201.564 279.344C202.41 279.888 203.081 280.635 203.577 281.585C204.073 282.535 204.321 283.63 204.321 284.87C204.321 286.098 204.073 287.197 203.577 288.167C203.081 289.137 202.409 289.903 201.561 290.465C200.713 291.027 199.757 291.308 198.693 291.308C198.137 291.308 197.606 291.222 197.1 291.05C196.594 290.878 196.132 290.641 195.714 290.339C195.296 290.037 194.929 289.686 194.613 289.286C194.297 288.886 194.043 288.46 193.851 288.008L194.271 287.678L194.271 290.402C194.271 290.602 194.204 290.773 194.07 290.915C193.936 291.057 193.763 291.128 193.551 291.128C193.351 291.128 193.181 291.058 193.041 290.918C192.901 290.778 192.831 290.606 192.831 290.402L192.831 274.052C192.831 273.852 192.898 273.681 193.032 273.539C193.166 273.397 193.339 273.326 193.551 273.326C193.763 273.326 193.936 273.397 194.07 273.539C194.204 273.681 194.271 273.852 194.271 274.052L194.271 282.092L193.935 281.912C194.103 281.416 194.341 280.963 194.649 280.553C194.957 280.143 195.321 279.787 195.741 279.485C196.161 279.183 196.62 278.948 197.118 278.78C197.616 278.612 198.133 278.528 198.669 278.528ZM198.543 279.872C197.683 279.872 196.926 280.087 196.272 280.517C195.618 280.947 195.104 281.537 194.73 282.287C194.356 283.037 194.169 283.898 194.169 284.87C194.169 285.838 194.356 286.708 194.73 287.48C195.104 288.252 195.618 288.859 196.272 289.301C196.926 289.743 197.683 289.964 198.543 289.964C199.391 289.964 200.141 289.74 200.793 289.292C201.445 288.844 201.961 288.234 202.341 287.462C202.721 286.69 202.911 285.826 202.911 284.87C202.911 283.898 202.721 283.037 202.341 282.287C201.961 281.537 201.445 280.947 200.793 280.517C200.141 280.087 199.391 279.872 198.543 279.872Z"/>
<path d="M216.785 290.348C216.785 290.54 216.713 290.708 216.569 290.852C216.425 290.996 216.257 291.068 216.065 291.068C215.857 291.068 215.685 290.996 215.549 290.852C215.413 290.708 215.345 290.54 215.345 290.348L215.345 279.308C215.345 279.116 215.413 278.948 215.549 278.804C215.685 278.66 215.857 278.588 216.065 278.588C216.273 278.588 216.445 278.66 216.581 278.804C216.717 278.948 216.785 279.116 216.785 279.308L216.785 290.348ZM216.065 276.98C215.729 276.98 215.477 276.904 215.309 276.752C215.141 276.6 215.057 276.38 215.057 276.092L215.057 275.852C215.057 275.564 215.149 275.344 215.333 275.192C215.517 275.04 215.769 274.964 216.089 274.964C216.393 274.964 216.629 275.04 216.797 275.192C216.965 275.344 217.049 275.564 217.049 275.852L217.049 276.092C217.049 276.38 216.965 276.6 216.797 276.752C216.629 276.904 216.385 276.98 216.065 276.98Z"/>
<path d="M230.095 290.342C230.095 290.542 230.024 290.713 229.882 290.855C229.74 290.997 229.569 291.068 229.369 291.068C229.161 291.068 228.99 290.997 228.856 290.855C228.722 290.713 228.655 290.542 228.655 290.342L228.655 274.034C228.655 273.834 228.726 273.663 228.868 273.521C229.01 273.379 229.181 273.308 229.381 273.308C229.593 273.308 229.765 273.379 229.897 273.521C230.029 273.663 230.095 273.834 230.095 274.034L230.095 290.342Z"/>
<path d="M247.335 291.308C246.095 291.308 245.005 291.045 244.065 290.519C243.125 289.993 242.39 289.257 241.86 288.311C241.33 287.365 241.065 286.264 241.065 285.008C241.065 283.64 241.333 282.475 241.869 281.513C242.405 280.551 243.1 279.813 243.954 279.299C244.808 278.785 245.715 278.528 246.675 278.528C247.383 278.528 248.068 278.651 248.73 278.897C249.392 279.143 249.982 279.51 250.5 279.998C251.018 280.486 251.435 281.081 251.751 281.783C252.067 282.485 252.237 283.298 252.261 284.222C252.257 284.414 252.183 284.579 252.039 284.717C251.895 284.855 251.727 284.924 251.535 284.924L241.899 284.924L241.611 283.64L251.067 283.64L250.755 283.922L250.755 283.436C250.687 282.684 250.445 282.046 250.029 281.522C249.613 280.998 249.11 280.598 248.52 280.322C247.93 280.046 247.315 279.908 246.675 279.908C246.195 279.908 245.705 280.005 245.205 280.199C244.705 280.393 244.249 280.693 243.837 281.099C243.425 281.505 243.092 282.024 242.838 282.656C242.584 283.288 242.457 284.038 242.457 284.906C242.457 285.854 242.649 286.709 243.033 287.471C243.417 288.233 243.971 288.839 244.695 289.289C245.419 289.739 246.287 289.964 247.299 289.964C247.855 289.964 248.357 289.883 248.805 289.721C249.253 289.559 249.648 289.347 249.99 289.085C250.332 288.823 250.615 288.548 250.839 288.26C251.007 288.116 251.177 288.044 251.349 288.044C251.521 288.044 251.666 288.107 251.784 288.233C251.902 288.359 251.961 288.504 251.961 288.668C251.961 288.86 251.881 289.03 251.721 289.178C251.245 289.746 250.622 290.243 249.852 290.669C249.082 291.095 248.243 291.308 247.335 291.308Z"/>
</g>
</g>
</g>
</g>
</g>
</svg>
