<svg height="181.30633580182132pt" stroke-miterlimit="10" style="fill-rule:nonzero;clip-rule:evenodd;stroke-linecap:round;stroke-linejoin:round;" version="1.1" viewBox="0 0 181.306 181.306" width="181.30633580182155pt" xml:space="preserve" xmlns="http://www.w3.org/2000/svg" xmlns:xlink="http://www.w3.org/1999/xlink">
<defs>
<path d="M6.44139e-15-0.00272475L181.309-0.00272475L181.309 181.306L6.44139e-15 181.306L6.44139e-15-0.00272475Z" id="Fill"/>
<path d="M6.58734e-15 90.6518C6.58734e-15 40.5847 40.5874-0.00272475 90.6545-0.00272475C140.722-0.00272475 181.309 40.5847 181.309 90.6518C181.309 140.719 140.722 181.306 90.6545 181.306C40.5874 181.306 6.58734e-15 140.719 6.58734e-15 90.6518Z" id="Fill_2"/>
<linearGradient gradientTransform="matrix(-181.752 153.199 -153.762 -182.419 182.478 27.7485)" gradientUnits="userSpaceOnUse" id="LinearGradient_2" x1="0" x2="1" y1="0" y2="0">
<stop offset="0" stop-color="#005a79"/>
<stop offset="1" stop-color="#012234"/>
</linearGradient>
</defs>
<clipPath id="ArtboardFrame">
<rect height="181.306" width="181.306" x="0" y="0"/>
</clipPath>
<g clip-path="url(#ArtboardFrame)" id="TaskLynx">
<g opacity="1">
<use fill="url(#LinearGradient)" fill-rule="nonzero" opacity="0" stroke="none" xlink:href="#Fill"/>
<g clip-path="url(#ClipPath)">
<g opacity="1">
<use fill="url(#LinearGradient_2)" fill-rule="nonzero" opacity="1" stroke="none" xlink:href="#Fill_2"/>
<clipPath clip-rule="nonzero" id="ClipPath_2">
<use xlink:href="#Fill_2"/>
</clipPath>
<g clip-path="url(#ClipPath_2)">
<g opacity="1">
<path d="M44.2052 35.9043C43.5788 39.2706 44.8416 62.2608 53.0063 74.9076C61.171 87.5544 60.308 85.8723 58.2941 78.7722C56.2802 71.6721 55.9226 65.8941 58.2818 70.107C61.1033 75.1453 65.3502 76.5417 67.7856 77.1709C70.2209 77.8001 63.3886 71.0752 54.9149 57.6294C46.4412 44.1836 44.8316 32.5379 44.2052 35.9043Z" fill="#ffffff" fill-rule="nonzero" opacity="1" stroke="none"/>
<path d="M45.5522 26.261C50.2636 31.3519 64.4489 41.4618 68.7896 43.2231C75.2201 45.8324 80.9441 49.7476 82.9684 50.8166C85.0948 51.9395 103.623 53.5589 115.09 56.1759C130.315 59.6505 143 63.0725 150.042 79.5331C155.373 91.9968 166.2 96.977 165.733 97.6556C165.266 98.3341 162.298 98.0272 160.443 98.5169C158.588 99.0066 154.376 99.6558 151.725 97.0374C149.074 94.4189 142.339 83.4846 140.148 79.5537C136.324 72.6916 124.531 66.1265 112.094 64.9101C86.1502 62.3729 80.565 59.6776 80.565 59.6776C80.565 59.6776 87.9819 67.8596 97.4296 71.0398C106.877 74.2201 99.1268 72.9408 93.7417 72.0555C88.3566 71.1701 77.6851 65.7981 65.5503 53.7507C53.4154 41.7033 40.5483 20.8541 45.5522 26.261Z" fill="#ffffff" fill-rule="nonzero" opacity="1" stroke="none"/>
<path d="M79.6412 31.6202C79.6412 31.6202 83.4711 38.3211 88.0435 43.244C92.4529 47.9916 93.1795 49.1177 101.995 50.1745C113.858 51.5967 111.736 52.4574 105.093 48.2939C98.4505 44.1303 80.232 31.9318 79.6412 31.6202Z" fill="#ffffff" fill-rule="nonzero" opacity="1" stroke="none"/>
<path d="M130.591 83.7508C134.583 86.2321 134.786 89.4525 136.328 90.7433C137.871 92.0342 138.292 93.9403 136.324 93.0624C134.356 92.1845 131.955 93.8534 127.383 91.2334C122.811 88.6133 122.484 84.6567 120.557 83.4697C118.63 82.2826 117.611 79.8629 120.632 81.0181C123.654 82.1734 126.599 81.2695 130.591 83.7508Z" fill="#ffffff" fill-rule="nonzero" opacity="1" stroke="none"/>
<path d="M159.16 103.129C163.12 103.795 165.977 100.678 162.826 105.046C159.676 109.414 158.089 115.059 156.707 117.367C155.325 119.675 149.084 126.564 141.933 126.272C134.783 125.98 130.587 123.668 128.909 123.604C127.231 123.54 132.78 123.038 137.584 122.104C142.389 121.17 143.958 117.854 146.057 117.765C148.157 117.677 133.468 116.189 122.714 118.19C111.961 120.192 99.728 124.869 94.1209 129.383C88.5137 133.896 95.8124 126.484 101.22 122.236C106.044 118.445 128.185 105.306 145.528 107.529C159.209 109.282 157.986 109.345 156.082 105.576C154.177 101.807 152.861 102.069 159.16 103.129Z" fill="#ffffff" fill-rule="nonzero" opacity="1" stroke="none"/>
<path d="M44.362 146.175C47.6935 145.662 64.8913 138.81 73.5724 124.231C81.2773 111.291 91.7189 95.5189 106.205 93.2858C96.2735 95.14 84.2135 114.896 78.8282 125.714C66.7522 149.973 41.0306 146.689 44.362 146.175Z" fill="#ffffff" fill-rule="nonzero" opacity="1" stroke="none"/>
<path d="M6.01663 141.15C11.1612 141.15 38.6961 134.814 55.1809 114.841C69.8122 97.114 89.23 75.7514 111.6 75.7514C96.1883 76.2391 73.403 103.234 62.7639 118.301C38.9072 152.086 0.872049 141.15 6.01663 141.15Z" fill="#ffffff" fill-rule="nonzero" opacity="1" stroke="none"/>
</g>
</g>
</g>
</g>
</g>
</g>
</svg>
