<svg height="181.30633580182132pt" stroke-miterlimit="10" style="fill-rule:nonzero;clip-rule:evenodd;stroke-linecap:round;stroke-linejoin:round;" version="1.1" viewBox="0 0 181.306 181.306" width="181.30633580182155pt" xml:space="preserve" xmlns="http://www.w3.org/2000/svg" xmlns:xlink="http://www.w3.org/1999/xlink">
<defs>
<path d="M6.44139e-15-0.00272475L181.309-0.00272475L181.309 181.306L6.44139e-15 181.306L6.44139e-15-0.00272475Z" id="Fill"/>
<linearGradient gradientTransform="matrix(-182.286 150.064 -150.064 -182.286 181.72 30.9447)" gradientUnits="userSpaceOnUse" id="LinearGradient" x1="0" x2="1" y1="0" y2="0">
<stop offset="0" stop-color="#005a79"/>
<stop offset="1" stop-color="#012234"/>
</linearGradient>
<path d="M6.58734e-15 90.6518C6.58734e-15 40.5847 40.5874-0.00272475 90.6545-0.00272475C140.722-0.00272475 181.309 40.5847 181.309 90.6518C181.309 140.719 140.722 181.306 90.6545 181.306C40.5874 181.306 6.58734e-15 140.719 6.58734e-15 90.6518Z" id="Fill_2"/>
<linearGradient gradientTransform="matrix(-181.752 153.199 -153.762 -182.419 182.478 27.7485)" gradientUnits="userSpaceOnUse" id="LinearGradient_2" x1="0" x2="1" y1="0" y2="0">
<stop offset="0" stop-color="#005a79"/>
<stop offset="1" stop-color="#012234"/>
</linearGradient>
</defs>
<clipPath id="ArtboardFrame">
<rect height="181.306" width="181.306" x="0" y="0"/>
</clipPath>
<g clip-path="url(#ArtboardFrame)" id="TaskLynx">
<g opacity="1">
<use fill="url(#LinearGradient)" fill-rule="nonzero" opacity="0" stroke="none" xlink:href="#Fill"/>
<clipPath clip-rule="nonzero" id="ClipPath">
<use xlink:href="#Fill"/>
</clipPath>
<g clip-path="url(#ClipPath)">
<g opacity="1">
<use fill="url(#LinearGradient_2)" fill-rule="nonzero" opacity="1" stroke="none" xlink:href="#Fill_2"/>
<clipPath clip-rule="nonzero" id="ClipPath_2">
<use xlink:href="#Fill_2"/>
</clipPath>
<g clip-path="url(#ClipPath_2)">
<g fill="#ffffff" opacity="1" stroke="none">
<path d="M27.2682 126.786L32.8662 126.786C33.0582 126.786 33.2192 126.854 33.3492 126.99C33.4792 127.126 33.5442 127.284 33.5442 127.464C33.5442 127.652 33.4792 127.81 33.3492 127.938C33.2192 128.066 33.0582 128.13 32.8662 128.13L27.2682 128.13C27.0882 128.13 26.9302 128.062 26.7942 127.926C26.6582 127.79 26.5902 127.632 26.5902 127.452C26.5902 127.264 26.6582 127.106 26.7942 126.978C26.9302 126.85 27.0882 126.786 27.2682 126.786ZM29.7462 123.39C29.9582 123.39 30.1302 123.461 30.2622 123.603C30.3942 123.745 30.4602 123.916 30.4602 124.116L30.4602 136.164C30.4602 136.616 30.5222 136.953 30.6462 137.175C30.7702 137.397 30.9292 137.543 31.1232 137.613C31.3172 137.683 31.5082 137.718 31.6962 137.718C31.8282 137.718 31.9442 137.697 32.0442 137.655C32.1442 137.613 32.2622 137.592 32.3982 137.592C32.5382 137.592 32.6612 137.651 32.7672 137.769C32.8732 137.887 32.9262 138.034 32.9262 138.21C32.9262 138.43 32.7962 138.615 32.5362 138.765C32.2762 138.915 31.9742 138.99 31.6302 138.99C31.4742 138.99 31.2522 138.98 30.9642 138.96C30.6762 138.94 30.3822 138.852 30.0822 138.696C29.7822 138.54 29.5302 138.271 29.3262 137.889C29.1222 137.507 29.0202 136.954 29.0202 136.23L29.0202 124.116C29.0202 123.916 29.0912 123.745 29.2332 123.603C29.3752 123.461 29.5462 123.39 29.7462 123.39Z"/>
<path d="M51.2642 126.738C51.4762 126.738 51.6492 126.808 51.7832 126.948C51.9172 127.088 51.9842 127.26 51.9842 127.464L51.9842 138.264C51.9842 138.464 51.9142 138.635 51.7742 138.777C51.6342 138.919 51.4642 138.99 51.2642 138.99C51.0522 138.99 50.8792 138.919 50.7452 138.777C50.6112 138.635 50.5442 138.464 50.5442 138.264L50.5442 135.414L50.9642 135.234C50.9642 135.67 50.8402 136.123 50.5922 136.593C50.3442 137.063 50.0042 137.496 49.5722 137.892C49.1402 138.288 48.6312 138.61 48.0452 138.858C47.4592 139.106 46.8262 139.23 46.1462 139.23C45.0662 139.23 44.0992 138.949 43.2452 138.387C42.3912 137.825 41.7192 137.059 41.2292 136.089C40.7392 135.119 40.4942 134.022 40.4942 132.798C40.4942 131.558 40.7422 130.462 41.2382 129.51C41.7342 128.558 42.4072 127.81 43.2572 127.266C44.1072 126.722 45.0622 126.45 46.1222 126.45C46.8102 126.45 47.4542 126.569 48.0542 126.807C48.6542 127.045 49.1782 127.372 49.6262 127.788C50.0742 128.204 50.4232 128.678 50.6732 129.21C50.9232 129.742 51.0482 130.3 51.0482 130.884L50.5442 130.512L50.5442 127.464C50.5442 127.264 50.6112 127.093 50.7452 126.951C50.8792 126.809 51.0522 126.738 51.2642 126.738ZM46.2722 137.886C47.1202 137.886 47.8742 137.665 48.5342 137.223C49.1942 136.781 49.7112 136.175 50.0852 135.405C50.4592 134.635 50.6462 133.766 50.6462 132.798C50.6462 131.862 50.4592 131.015 50.0852 130.257C49.7112 129.499 49.1942 128.899 48.5342 128.457C47.8742 128.015 47.1202 127.794 46.2722 127.794C45.4402 127.794 44.6942 128.009 44.0342 128.439C43.3742 128.869 42.8542 129.46 42.4742 130.212C42.0942 130.964 41.9042 131.826 41.9042 132.798C41.9042 133.766 42.0912 134.635 42.4652 135.405C42.8392 136.175 43.3562 136.781 44.0162 137.223C44.6762 137.665 45.4282 137.886 46.2722 137.886Z"/>
<path d="M60.0622 137.052C59.9382 136.852 59.8812 136.663 59.8912 136.485C59.9012 136.307 59.9982 136.156 60.1822 136.032C60.3062 135.932 60.4552 135.888 60.6292 135.9C60.8032 135.912 60.9602 135.994 61.1002 136.146C61.5282 136.706 62.0492 137.156 62.6632 137.496C63.2772 137.836 64.0102 138.006 64.8622 138.006C65.3182 138.002 65.7652 137.927 66.2032 137.781C66.6412 137.635 67.0042 137.405 67.2922 137.091C67.5802 136.777 67.7242 136.376 67.7242 135.888C67.7242 135.392 67.5802 134.995 67.2922 134.697C67.0042 134.399 66.6312 134.16 66.1732 133.98C65.7152 133.8 65.2282 133.646 64.7122 133.518C64.1682 133.374 63.6422 133.211 63.1342 133.029C62.6262 132.847 62.1742 132.616 61.7782 132.336C61.3822 132.056 61.0662 131.714 60.8302 131.31C60.5942 130.906 60.4762 130.418 60.4762 129.846C60.4762 129.178 60.6582 128.588 61.0222 128.076C61.3862 127.564 61.8852 127.165 62.5192 126.879C63.1532 126.593 63.8682 126.45 64.6642 126.45C65.0762 126.45 65.5122 126.501 65.9722 126.603C66.4322 126.705 66.8862 126.876 67.3342 127.116C67.7822 127.356 68.1862 127.686 68.5462 128.106C68.6862 128.238 68.7572 128.397 68.7592 128.583C68.7612 128.769 68.6782 128.938 68.5102 129.09C68.3782 129.186 68.2302 129.231 68.0662 129.225C67.9022 129.219 67.7642 129.156 67.6522 129.036C67.2722 128.6 66.8182 128.272 66.2902 128.052C65.7622 127.832 65.1902 127.722 64.5742 127.722C64.1182 127.722 63.6842 127.795 63.2722 127.941C62.8602 128.087 62.5202 128.312 62.2522 128.616C61.9842 128.92 61.8502 129.32 61.8502 129.816C61.8742 130.28 62.0332 130.659 62.3272 130.953C62.6212 131.247 63.0142 131.489 63.5062 131.679C63.9982 131.869 64.5482 132.046 65.1562 132.21C65.6722 132.338 66.1632 132.487 66.6292 132.657C67.0952 132.827 67.5092 133.044 67.8712 133.308C68.2332 133.572 68.5212 133.905 68.7352 134.307C68.9492 134.709 69.0562 135.214 69.0562 135.822C69.0562 136.53 68.8612 137.139 68.4712 137.649C68.0812 138.159 67.5592 138.55 66.9052 138.822C66.2512 139.094 65.5242 139.23 64.7242 139.23C63.8642 139.23 63.0282 139.063 62.2162 138.729C61.4042 138.395 60.6862 137.836 60.0622 137.052Z"/>
<path d="M77.8842 138.99C77.6722 138.99 77.4992 138.919 77.3652 138.777C77.2312 138.635 77.1642 138.464 77.1642 138.264L77.1642 121.956C77.1642 121.756 77.2312 121.585 77.3652 121.443C77.4992 121.301 77.6722 121.23 77.8842 121.23C78.0962 121.23 78.2692 121.301 78.4032 121.443C78.5372 121.585 78.6042 121.756 78.6042 121.956L78.6042 138.264C78.6042 138.464 78.5372 138.635 78.4032 138.777C78.2692 138.919 78.0962 138.99 77.8842 138.99ZM86.0382 126.69C86.2262 126.69 86.3902 126.764 86.5302 126.912C86.6702 127.06 86.7402 127.224 86.7402 127.404C86.7402 127.608 86.6502 127.788 86.4702 127.944L78.4182 134.808L78.3522 133.116L85.5402 126.912C85.6882 126.764 85.8542 126.69 86.0382 126.69ZM86.2362 138.984C86.0362 138.984 85.8582 138.902 85.7022 138.738L80.2362 132.918L81.3222 131.946L86.7402 137.73C86.8882 137.882 86.9622 138.062 86.9622 138.27C86.9622 138.494 86.8732 138.669 86.6952 138.795C86.5172 138.921 86.3642 138.984 86.2362 138.984Z"/>
<path d="M96.3302 138.264C96.3302 138.464 96.2592 138.635 96.1172 138.777C95.9752 138.919 95.8042 138.99 95.6042 138.99C95.3962 138.99 95.2252 138.919 95.0912 138.777C94.9572 138.635 94.8902 138.464 94.8902 138.264L94.8902 121.956C94.8902 121.756 94.9612 121.585 95.1032 121.443C95.2452 121.301 95.4162 121.23 95.6162 121.23C95.8282 121.23 96.0002 121.301 96.1322 121.443C96.2642 121.585 96.3302 121.756 96.3302 121.956L96.3302 138.264Z"/>
<path d="M114.038 126.51C114.25 126.51 114.423 126.581 114.557 126.723C114.691 126.865 114.758 127.036 114.758 127.236L114.758 137.814C114.758 139.106 114.503 140.197 113.993 141.087C113.483 141.977 112.794 142.65 111.926 143.106C111.058 143.562 110.072 143.79 108.968 143.79C108.288 143.79 107.657 143.714 107.075 143.562C106.493 143.41 106.018 143.218 105.65 142.986C105.446 142.874 105.297 142.737 105.203 142.575C105.109 142.413 105.1 142.24 105.176 142.056C105.26 141.844 105.387 141.699 105.557 141.621C105.727 141.543 105.898 141.55 106.07 141.642C106.338 141.782 106.731 141.957 107.249 142.167C107.767 142.377 108.352 142.482 109.004 142.482C109.884 142.482 110.646 142.295 111.29 141.921C111.934 141.547 112.434 141.013 112.79 140.319C113.146 139.625 113.324 138.798 113.324 137.838L113.324 136.104L113.486 136.698C113.25 137.19 112.91 137.626 112.466 138.006C112.022 138.386 111.517 138.685 110.951 138.903C110.385 139.121 109.784 139.23 109.148 139.23C108.192 139.23 107.398 139.034 106.766 138.642C106.134 138.25 105.663 137.709 105.353 137.019C105.043 136.329 104.888 135.524 104.888 134.604L104.888 127.236C104.888 127.036 104.955 126.865 105.089 126.723C105.223 126.581 105.396 126.51 105.608 126.51C105.82 126.51 105.993 126.581 106.127 126.723C106.261 126.865 106.328 127.036 106.328 127.236L106.328 134.388C106.328 135.5 106.574 136.361 107.066 136.971C107.558 137.581 108.356 137.886 109.46 137.886C110.14 137.886 110.771 137.724 111.353 137.4C111.935 137.076 112.408 136.645 112.772 136.107C113.136 135.569 113.318 134.996 113.318 134.388L113.318 127.236C113.318 127.036 113.385 126.865 113.519 126.723C113.653 126.581 113.826 126.51 114.038 126.51Z"/>
<path d="M129.328 126.45C130.38 126.45 131.22 126.662 131.848 127.086C132.476 127.51 132.93 128.083 133.21 128.805C133.49 129.527 133.63 130.332 133.63 131.22L133.63 138.264C133.63 138.464 133.56 138.635 133.42 138.777C133.28 138.919 133.11 138.99 132.91 138.99C132.698 138.99 132.525 138.919 132.391 138.777C132.257 138.635 132.19 138.464 132.19 138.264L132.19 131.292C132.19 130.644 132.086 130.057 131.878 129.531C131.67 129.005 131.333 128.584 130.867 128.268C130.401 127.952 129.78 127.794 129.004 127.794C128.316 127.794 127.665 127.952 127.051 128.268C126.437 128.584 125.936 129.005 125.548 129.531C125.16 130.057 124.966 130.644 124.966 131.292L124.966 138.264C124.966 138.464 124.896 138.635 124.756 138.777C124.616 138.919 124.446 138.99 124.246 138.99C124.034 138.99 123.861 138.919 123.727 138.777C123.593 138.635 123.526 138.464 123.526 138.264L123.526 127.524C123.526 127.324 123.596 127.153 123.736 127.011C123.876 126.869 124.046 126.798 124.246 126.798C124.458 126.798 124.631 126.869 124.765 127.011C124.899 127.153 124.966 127.324 124.966 127.524L124.966 129.546L124.426 130.392C124.462 129.892 124.628 129.405 124.924 128.931C125.22 128.457 125.6 128.033 126.064 127.659C126.528 127.285 127.043 126.99 127.609 126.774C128.175 126.558 128.748 126.45 129.328 126.45Z"/>
<path d="M142.068 126.6C142.304 126.6 142.498 126.704 142.65 126.912L151.152 137.916C151.252 138.04 151.302 138.184 151.302 138.348C151.302 138.544 151.231 138.714 151.089 138.858C150.947 139.002 150.782 139.074 150.594 139.074C150.37 139.074 150.17 138.968 149.994 138.756L141.474 127.77C141.374 127.646 141.324 127.502 141.324 127.338C141.324 127.126 141.4 126.95 141.552 126.81C141.704 126.67 141.876 126.6 142.068 126.6ZM142.074 139.068C141.91 139.068 141.753 139.01 141.603 138.894C141.453 138.778 141.378 138.616 141.378 138.408C141.378 138.244 141.432 138.096 141.54 137.964L145.608 132.756L146.4 133.914L142.65 138.774C142.502 138.97 142.31 139.068 142.074 139.068ZM150.588 126.6C150.804 126.6 150.972 126.663 151.092 126.789C151.212 126.915 151.272 127.062 151.272 127.23C151.272 127.306 151.257 127.385 151.227 127.467C151.197 127.549 151.154 127.626 151.098 127.698L147.042 133.014L146.286 131.862L149.994 126.924C150.17 126.708 150.368 126.6 150.588 126.6Z"/>
</g>
<g opacity="1">
<path d="M57.6572 39.1642C57.2342 41.4378 58.0871 56.9651 63.6014 65.5066C69.1157 74.0481 68.5329 72.9121 67.1727 68.1167C65.8125 63.3214 65.5711 59.419 67.1644 62.2643C69.07 65.6672 71.9383 66.6103 73.5832 67.0352C75.228 67.4601 70.6135 62.9183 64.8905 53.8371C59.1674 44.756 58.0803 36.8906 57.6572 39.1642Z" fill="#ffffff" fill-rule="nonzero" opacity="1" stroke="none"/>
<path d="M58.567 32.6513C61.749 36.0896 71.3296 42.9177 74.2612 44.1073C78.6043 45.8695 82.4702 48.5138 83.8374 49.2358C85.2736 49.9942 97.7872 51.088 105.532 52.8555C115.815 55.2021 124.382 57.5133 129.138 68.6306C132.739 77.0485 140.051 80.412 139.735 80.8703C139.42 81.3286 137.416 81.1213 136.163 81.4521C134.91 81.7828 132.065 82.2213 130.275 80.4528C128.484 78.6843 123.935 71.2994 122.456 68.6445C119.873 64.01 111.909 59.5759 103.509 58.7544C85.9864 57.0408 82.2142 55.2204 82.2142 55.2204C82.2142 55.2204 87.2235 60.7464 93.6044 62.8944C99.9853 65.0423 94.7507 64.1783 91.1136 63.5803C87.4766 62.9824 80.2692 59.3542 72.0734 51.2175C63.8777 43.0808 55.1874 28.9995 58.567 32.6513Z" fill="#ffffff" fill-rule="nonzero" opacity="1" stroke="none"/>
<path d="M81.5903 36.2708C81.5903 36.2708 84.177 40.7965 87.2651 44.1214C90.2432 47.3278 90.7339 48.0884 96.6879 48.8022C104.7 49.7627 103.267 50.344 98.7803 47.532C94.2939 44.72 81.9893 36.4812 81.5903 36.2708Z" fill="#ffffff" fill-rule="nonzero" opacity="1" stroke="none"/>
<path d="M116.001 71.4792C118.698 73.155 118.834 75.3301 119.876 76.2019C120.918 77.0737 121.202 78.3611 119.873 77.7682C118.544 77.1753 116.922 78.3024 113.835 76.5328C110.747 74.7633 110.526 72.0911 109.224 71.2893C107.923 70.4876 107.235 68.8534 109.275 69.6336C111.316 70.4138 113.305 69.8034 116.001 71.4792Z" fill="#ffffff" fill-rule="nonzero" opacity="1" stroke="none"/>
<path d="M135.296 84.5669C137.971 85.0171 139.901 82.9118 137.773 85.862C135.645 88.8121 134.573 92.6244 133.64 94.1831C132.706 95.7418 128.491 100.395 123.662 100.198C118.832 100 115.998 98.439 114.865 98.3957C113.732 98.3524 117.479 98.0131 120.725 97.3825C123.97 96.7519 125.029 94.5119 126.447 94.4523C127.865 94.3928 117.944 93.3873 110.681 94.7393C103.418 96.0914 95.1567 99.2497 91.3697 102.298C87.5827 105.347 92.5121 100.341 96.1641 97.4714C99.4222 94.9113 114.376 86.0376 126.089 87.5385C135.329 88.7225 134.504 88.7652 133.217 86.2197C131.931 83.6742 131.042 83.8511 135.296 84.5669Z" fill="#ffffff" fill-rule="nonzero" opacity="1" stroke="none"/>
<path d="M57.7632 113.64C60.0132 113.293 71.6284 108.666 77.4915 98.8189C82.6953 90.0794 89.7474 79.4272 99.5309 77.919C92.8235 79.1714 84.6784 92.514 81.0412 99.8208C72.8852 116.205 55.5132 113.987 57.7632 113.64Z" fill="#ffffff" fill-rule="nonzero" opacity="1" stroke="none"/>
<path d="M31.8651 110.246C35.3397 110.246 53.9364 105.967 65.0701 92.4773C74.9519 80.5045 88.0664 66.0765 103.175 66.0765C92.766 66.4059 77.3771 84.6381 70.1916 94.8139C54.079 117.632 28.3905 110.246 31.8651 110.246Z" fill="#ffffff" fill-rule="nonzero" opacity="1" stroke="none"/>
</g>
</g>
</g>
</g>
</g>
</g>
</svg>
